<?xml version="1.0" encoding="UTF-8" standalone="no"?>
<!-- Created with Inkscape (http://www.inkscape.org/) -->

<svg
   width="31.422655mm"
   height="43.917385mm"
   viewBox="0 0 31.422655 43.917385"
   version="1.1"
   id="svg1"
   xml:space="preserve"
   xmlns:xlink="http://www.w3.org/1999/xlink"
   xmlns="http://www.w3.org/2000/svg"
   xmlns:svg="http://www.w3.org/2000/svg"><defs
     id="defs1"><linearGradient
       id="linearGradient16"><stop
         style="stop-color:#0a06ff;stop-opacity:1;"
         offset="0"
         id="stop18" /><stop
         style="stop-color:#34d6ff;stop-opacity:1;"
         offset="0.32682925"
         id="stop19" /><stop
         style="stop-color:#21f0ff;stop-opacity:1;"
         offset="0.4926829"
         id="stop16" /><stop
         style="stop-color:#34b1ff;stop-opacity:1;"
         offset="0.63170731"
         id="stop20" /><stop
         style="stop-color:#061eff;stop-opacity:1;"
         offset="1"
         id="stop17" /></linearGradient><linearGradient
       id="linearGradient11"><stop
         style="stop-color:#003347;stop-opacity:0.86842108;"
         offset="0"
         id="stop11" /><stop
         style="stop-color:#018ad0;stop-opacity:0.66541356;"
         offset="0.43170732"
         id="stop13" /><stop
         style="stop-color:#003347;stop-opacity:0.89097744;"
         offset="1"
         id="stop12" /></linearGradient><linearGradient
       xlink:href="#linearGradient11"
       id="linearGradient12"
       x1="44.079296"
       y1="122.81498"
       x2="164.94257"
       y2="122.81498"
       gradientUnits="userSpaceOnUse"
       spreadMethod="pad"
       gradientTransform="translate(0.20875817,0.78284312)" /><linearGradient
       xlink:href="#linearGradient16"
       id="linearGradient29"
       x1="43.629414"
       y1="122.81498"
       x2="165.39246"
       y2="122.81498"
       gradientUnits="userSpaceOnUse"
       gradientTransform="translate(0.20875817,0.78284312)" /></defs><g
     id="layer1"
     transform="translate(-19.842687,-70.006509)"><g
       id="membersBoard"
       transform="matrix(0.258064,0,0,0.258064,8.5296338,60.06905)"><title
         id="title39">MembersBoard</title><path
         id="rect1"
         style="fill:url(#linearGradient12);fill-opacity:0.796078;stroke:url(#linearGradient29);stroke-width:2.129;stroke-linecap:square;stroke-dasharray:none;stroke-opacity:1"
         d="M 56.536586,39.572207 44.902671,51.206122 V 196.02364 l 11.599809,11.5998 h 98.24 l 9.79423,-9.79475 V 50.286798 L 153.82264,39.572207 Z" /><path
         id="path32"
         style="fill:none;fill-opacity:0.809524;stroke:#e6bd00;stroke-width:0.4;stroke-linecap:square"
         transform="rotate(-105.01541,138.37279,171.75611)"
         d="m 139.93837,178.02287 -3.955,0.12947 -1.3453,-3.72141 3.12356,-2.42944 3.27576,2.21995 z m -0.0628,-12.94716 3.24935,2.25843 -1.14378,3.78821 -3.95626,0.0828 -1.3013,-3.73703 z m -9.03496,6.52912 1.10307,-3.80026 3.95513,-0.12528 1.34134,3.72285 -3.12614,2.42611 z m -12.15398,0.10503 3.24342,2.26695 3.15826,-2.38413 -1.29149,-3.74043 -3.95645,0.0724 z m 7.11858,-10.81475 -3.95532,0.1191 -1.10901,3.79853 3.26993,2.22854 3.12992,-2.42123 z m 4.00749,10.40193 1.14971,-3.78642 -3.24581,-2.26351 -3.15573,2.3875 1.29547,3.73905 z" /><path
         id="path37"
         style="fill:none;fill-opacity:0.809524;stroke:#e6bd00;stroke-width:0.336137;stroke-linecap:square;stroke-dasharray:none;stroke-opacity:1"
         d="m 144.93756,54.099741 1.77737,0.302019 1.38704,-5.289399 1.33667,-0.142374 c -0.64939,5.884703 2.01884,8.0555 4.00767,10.337372 0.21393,1.77408 0.34927,3.374266 1.13752,6.418939 l -2.2366,2.866085 -1.01991,-1.992279 -1.75582,-0.07395 -1.13189,1.580141 c -0.99179,-0.49853 -2.01047,-0.970617 -3.15014,-1.323736 l -0.95032,0.07787 m 0.40765,-12.760683 -1.77737,0.302019 -1.38704,-5.289399 -1.33667,-0.142374 c 0.64939,5.884703 -2.01884,8.0555 -4.00767,10.337372 -0.21393,1.77408 -0.34927,3.374266 -1.13752,6.418939 l 2.2366,2.866085 1.01991,-1.992279 1.75582,-0.07395 1.13189,1.580141 c 0.99179,-0.49853 2.01047,-0.970617 3.15014,-1.323736 l 0.95032,0.07787" /></g></g></svg>
