<?xml version="1.0" encoding="UTF-8" standalone="no"?>
<!-- Created with Inkscape (http://www.inkscape.org/) -->

<svg
   width="121.76304mm"
   height="170.18022mm"
   viewBox="0 0 121.76304 170.18022"
   version="1.1"
   id="svg1"
   xml:space="preserve"
   xmlns:xlink="http://www.w3.org/1999/xlink"
   xmlns="http://www.w3.org/2000/svg"
   xmlns:svg="http://www.w3.org/2000/svg"><defs
     id="defs1"><linearGradient
       id="linearGradient16"><stop
         style="stop-color:#0a06ff;stop-opacity:1;"
         offset="0"
         id="stop18" /><stop
         style="stop-color:#34d6ff;stop-opacity:1;"
         offset="0.32682925"
         id="stop19" /><stop
         style="stop-color:#21f0ff;stop-opacity:1;"
         offset="0.4926829"
         id="stop16" /><stop
         style="stop-color:#34b1ff;stop-opacity:1;"
         offset="0.63170731"
         id="stop20" /><stop
         style="stop-color:#061eff;stop-opacity:1;"
         offset="1"
         id="stop17" /></linearGradient><linearGradient
       id="linearGradient11"><stop
         style="stop-color:#003347;stop-opacity:0.86842108;"
         offset="0"
         id="stop11" /><stop
         style="stop-color:#018ad0;stop-opacity:0.66541356;"
         offset="0.43170732"
         id="stop13" /><stop
         style="stop-color:#003347;stop-opacity:0.89097744;"
         offset="1"
         id="stop12" /></linearGradient><linearGradient
       xlink:href="#linearGradient11"
       id="linearGradient12"
       x1="44.079296"
       y1="122.81498"
       x2="164.94257"
       y2="122.81498"
       gradientUnits="userSpaceOnUse"
       spreadMethod="pad"
       gradientTransform="translate(0.20875817,0.78284312)" /><linearGradient
       xlink:href="#linearGradient16"
       id="linearGradient29"
       x1="43.629414"
       y1="122.81498"
       x2="165.39246"
       y2="122.81498"
       gradientUnits="userSpaceOnUse"
       gradientTransform="translate(0.20875817,0.78284312)" /></defs><g
     id="layer1"
     transform="translate(-43.838168,-38.507707)"><g
       id="membersBoard"><title
         id="title39">MembersBoard</title><path
         id="rect1"
         style="fill:url(#linearGradient12);fill-opacity:0.796078;stroke:url(#linearGradient29);stroke-width:2.129;stroke-linecap:square;stroke-dasharray:none;stroke-opacity:1"
         d="M 56.536586,39.572207 44.902671,51.206122 V 196.02364 l 11.599809,11.5998 h 98.24 l 9.79423,-9.79475 V 50.286798 L 153.82264,39.572207 Z" /><g
         id="g35"
         transform="matrix(1,0,0,-1,0.20875817,358.1657)"><path
           style="fill:none;fill-opacity:0.809524;stroke:#e6bd00;stroke-width:0.4;stroke-linecap:square;stroke-dasharray:none;stroke-opacity:1"
           id="path33"
           d="m 139.93837,178.02287 -3.955,0.12947 -1.3453,-3.72141 3.12356,-2.42944 3.27576,2.21995 z" /><path
           style="fill:none;fill-opacity:0.809524;stroke:#e6bd00;stroke-width:0.4;stroke-linecap:square;stroke-dasharray:none;stroke-opacity:1"
           id="path34"
           d="m 139.93837,178.02287 -3.955,0.12947 -1.3453,-3.72141 3.12356,-2.42944 3.27576,2.21995 z"
           transform="rotate(108.61499,137.79239,171.50434)" /><path
           style="fill:none;fill-opacity:0.809524;stroke:#e6bd00;stroke-width:0.4;stroke-linecap:square;stroke-dasharray:none;stroke-opacity:1"
           id="path35"
           d="m 139.93837,178.02287 -3.955,0.12947 -1.3453,-3.72141 3.12356,-2.42944 3.27576,2.21995 z"
           transform="rotate(-108.0609,137.71839,171.5126)" /></g><g
         id="g37"
         transform="matrix(0.52052493,0,0,0.47404596,72.561678,17.523143)"><path
           style="fill:none;fill-opacity:0.809524;stroke:#e6bd00;stroke-width:0.4;stroke-linecap:square;stroke-dasharray:none;stroke-opacity:1"
           d="m 139.26579,76.039281 -3.31301,0.572547 -2.58542,-10.027283 -2.49153,-0.269903 c 1.21044,11.15582 -3.7631,15.271071 -7.47026,19.596888 -0.39877,3.363181 -0.65103,6.396706 -2.12033,12.16859 l 4.16901,5.43333 1.90109,-3.776827 3.27284,-0.140197 2.10983,2.995524 c 1.84868,-0.94508 3.74749,-1.84003 5.87183,-2.50945 l 1.77137,0.14762"
           id="path36" /><path
           style="fill:none;fill-opacity:0.809524;stroke:#e6bd00;stroke-width:0.4;stroke-linecap:square;stroke-dasharray:none;stroke-opacity:1"
           d="m 139.62136,76.039281 3.31301,0.572547 2.58542,-10.027283 2.49153,-0.269903 c -1.21044,11.15582 3.7631,15.271071 7.47026,19.596888 0.39877,3.363181 0.65103,6.396706 2.12033,12.16859 l -4.16901,5.43333 -1.90109,-3.776827 -3.27284,-0.140197 -2.10983,2.995524 c -1.84868,-0.94508 -3.74749,-1.84003 -5.87183,-2.50945 l -1.77137,0.14762"
           id="path37" /></g><g
         id="g33"
         transform="rotate(3.0454868,120.35766,183.05571)"><path
           style="fill:none;fill-opacity:0.809524;stroke:#e6bd00;stroke-width:0.4;stroke-linecap:square;stroke-dasharray:none;stroke-opacity:1"
           id="path30"
           d="m 139.93837,178.02287 -3.955,0.12947 -1.3453,-3.72141 3.12356,-2.42944 3.27576,2.21995 z" /><path
           style="fill:none;fill-opacity:0.809524;stroke:#e6bd00;stroke-width:0.4;stroke-linecap:square;stroke-dasharray:none;stroke-opacity:1"
           id="path31"
           d="m 139.93837,178.02287 -3.955,0.12947 -1.3453,-3.72141 3.12356,-2.42944 3.27576,2.21995 z"
           transform="rotate(108.61499,137.79239,171.50434)" /><path
           style="fill:none;fill-opacity:0.809524;stroke:#e6bd00;stroke-width:0.4;stroke-linecap:square;stroke-dasharray:none;stroke-opacity:1"
           id="path32"
           d="m 139.93837,178.02287 -3.955,0.12947 -1.3453,-3.72141 3.12356,-2.42944 3.27576,2.21995 z"
           transform="rotate(-108.0609,137.71839,171.5126)" /></g></g></g></svg>
